<svg width="86px" height="81px" viewBox="0 0 86 81" version="1.1" xmlns="http://www.w3.org/2000/svg" xmlns:xlink="http://www.w3.org/1999/xlink">
    <defs>
        <linearGradient x1="0%" y1="0%" x2="99.7432255%" y2="0%" id="linearGradient-1">
            <stop stop-color="#989898" offset="0%"></stop>
            <stop stop-color="#b2b2b2" offset="100%"></stop>
        </linearGradient>
        <radialGradient cx="50%" cy="0%" fx="50%" fy="0%" r="177.44405%" gradientTransform="translate(0.500000,0.000000),scale(1.000000,0.563558),rotate(90.000000),translate(-0.500000,-0.000000)" id="radialGradient-2">
            <stop stop-color="#4a4a4a" offset="0%"></stop>
            <stop stop-color="#2e2e2e" offset="49.5438156%"></stop>
            <stop stop-color="#4a4a4a" offset="100%"></stop>
        </radialGradient>
    </defs>
    <g id="Page-1" stroke="none" stroke-width="1" fill="none" fill-rule="evenodd">
        <g id="Group" fill-rule="nonzero">
            <path d="M23.1602036,80.3750752 C22.503862,79.9421493 22.1886698,79.140263 22.3777851,78.3773123 L25.6706175,65.0715625 L12.8997676,65.0715625 C12.0246455,65.0715625 11.2644758,64.4634268 11.0864849,63.6031373 L0.0399222144,11.0142309 C-0.0676139783,10.4987988 0.0436303589,9.96482601 0.355114503,9.54209753 C0.662890503,9.11936904 1.13382486,8.84496635 1.65667325,8.78841714 L83.3137249,0.0121659702 C83.8764358,-0.0545806321 84.444709,0.156783609 84.8414805,0.560971367 C85.2382519,0.965159126 85.4264403,1.53992153 85.3485692,2.09985137 L78.084314,56.0450116 C77.9582371,56.9646314 77.1767456,57.6543463 76.2460014,57.6543463 L54.9352945,57.6543463 L25.3072193,80.293496 C24.9697782,80.549358 24.5730067,80.6754349 24.1762352,80.6754349 C23.8239615,80.6754349 23.4679796,80.5790231 23.1602036,80.3750752 Z" id="Path" fill="url(#linearGradient-1)"></path>
            <path d="M52.6861538,16.5396491 C52.6861538,15.1150877 51.7261538,15.020117 50.9507692,15.020117 C47.2215385,15.020117 42.7907692,18.5340351 38.7292308,24.6121637 C35.0369231,30.1679532 32.3784615,38.2404678 32.3784615,44.7934503 C32.3784615,51.5838596 34.4092308,53.9581287 38.1015385,53.9581287 C45.1907692,53.9581287 54.0523077,41.3270175 54.0523077,37.2432749 C54.0523077,36.5309942 53.6461538,36.3410526 52.7969231,36.3410526 C51.9476923,36.3410526 47.0369231,37.8605848 44.2676923,39.2376608 C43.7507692,39.4750877 44.4523077,38.0980117 45.1538462,37.7181287 C49.4738462,35.2963743 54.8276923,34.0617544 54.8276923,37.005848 C54.8276923,43.0839766 45.1538462,55.4301754 38.1015385,55.4301754 C33.1907692,55.4301754 31.4923077,50.254269 31.4923077,44.7934503 C31.4923077,38.6203509 33.0430769,31.9723977 37.9169231,23.9473684 C41.5723077,17.9642105 46.7046154,14.022924 50.6184615,14.022924 C52.1692308,14.022924 53.3507692,14.7352047 53.3507692,16.2547368 C53.3507692,17.8217544 52.6492308,20.4334503 52.1323077,21.1932164 C51.6153846,21.8580117 51.0984615,21.6680702 51.3938462,21.0507602 C52.1323077,19.3887719 52.6861538,17.9642105 52.6861538,16.5396491 Z" id="Path" stroke="url(#radialGradient-2)" stroke-width="3" fill=""></path>
        </g>
    </g>
</svg>